<svg version="1.1" id="Layer_1" xmlns="http://www.w3.org/2000/svg" xmlns:xlink="http://www.w3.org/1999/xlink" x="0px" y="0px"
	 width="100%" viewBox="0 0 70 60" enable-background="new 0 0 70 60" xml:space="preserve">
<path fill="#040404" opacity="1.000000" stroke="none" 
	d="
M53.002815,61.000000 
	C35.335670,61.000000 18.169073,61.000000 1.001858,61.000000 
	C1.001239,41.000908 1.001239,21.001816 1.000619,1.002043 
	C24.332329,1.001362 47.664658,1.001362 70.997742,1.000681 
	C70.998489,20.998915 70.998489,40.997829 70.999245,60.998371 
	C65.167786,61.000000 59.335575,61.000000 53.002815,61.000000 
M44.431553,17.048021 
	C41.859627,12.785602 39.287701,8.523182 36.471966,3.856707 
	C30.823324,13.175612 25.388529,22.141722 19.539270,31.791594 
	C17.931320,27.048031 16.416500,23.496883 11.019858,25.706547 
	C11.795845,27.390223 12.331070,29.174475 13.341897,30.627966 
	C16.378246,34.993992 16.181221,38.857552 12.911018,43.203308 
	C9.822917,47.307064 7.544166,52.019859 4.897634,56.484623 
	C9.454911,58.031010 11.527909,56.129925 13.334054,52.772079 
	C16.323019,47.215221 19.746672,41.891415 23.008554,36.482304 
	C27.392097,29.213175 31.795963,21.956301 36.490959,14.198713 
	C40.559402,20.923523 43.841206,27.122665 47.882889,32.778824 
	C51.006966,37.150833 51.062954,40.804714 47.368092,44.996567 
	C44.001068,39.525532 40.661987,34.099899 36.984715,28.124741 
	C32.853535,34.852852 29.310371,41.023457 25.352047,46.915123 
	C23.091303,50.280071 22.887777,52.998600 26.227711,55.906052 
	C29.761024,50.173481 33.264847,44.488766 37.015137,38.404171 
	C40.924049,44.750725 44.430637,50.444065 48.141045,56.468323 
	C50.377209,52.045040 52.263523,48.313778 54.047836,44.784283 
	C59.532322,48.128201 58.272579,58.358322 68.316139,56.674736 
	C66.153191,53.099224 64.576004,49.756664 62.335655,46.941929 
	C57.699886,41.117626 56.477985,35.401531 61.395119,29.146107 
	C62.166889,28.164284 62.410320,26.767157 62.856533,25.664644 
	C56.276215,22.567011 56.375107,29.351408 53.457741,31.977827 
	C50.490612,27.045074 47.665886,22.349062 44.431553,17.048021 
z"/>
<path fill="#F0F0F0" opacity="1.000000" stroke="none" 
	d="
M44.636356,17.350536 
	C47.665886,22.349062 50.490612,27.045074 53.457741,31.977827 
	C56.375107,29.351408 56.276215,22.567011 62.856533,25.664644 
	C62.410320,26.767157 62.166889,28.164284 61.395119,29.146107 
	C56.477985,35.401531 57.699886,41.117626 62.335655,46.941929 
	C64.576004,49.756664 66.153191,53.099224 68.316139,56.674736 
	C58.272579,58.358322 59.532322,48.128201 54.047836,44.784283 
	C52.263523,48.313778 50.377209,52.045040 48.141045,56.468323 
	C44.430637,50.444065 40.924049,44.750725 37.015137,38.404171 
	C33.264847,44.488766 29.761024,50.173481 26.227711,55.906052 
	C22.887777,52.998600 23.091303,50.280071 25.352047,46.915123 
	C29.310371,41.023457 32.853535,34.852852 36.984715,28.124741 
	C40.661987,34.099899 44.001068,39.525532 47.368092,44.996567 
	C51.062954,40.804714 51.006966,37.150833 47.882889,32.778824 
	C43.841206,27.122665 40.559402,20.923523 36.490959,14.198713 
	C31.795963,21.956301 27.392097,29.213175 23.008554,36.482304 
	C19.746672,41.891415 16.323019,47.215221 13.334054,52.772079 
	C11.527909,56.129925 9.454911,58.031010 4.897634,56.484623 
	C7.544166,52.019859 9.822917,47.307064 12.911018,43.203308 
	C16.181221,38.857552 16.378246,34.993992 13.341897,30.627966 
	C12.331070,29.174475 11.795845,27.390223 11.019858,25.706547 
	C16.416500,23.496883 17.931320,27.048031 19.539270,31.791594 
	C25.388529,22.141722 30.823324,13.175612 36.471966,3.856707 
	C39.287701,8.523182 41.859627,12.785602 44.636356,17.350536 
z"/>
</svg>